<svg xmlns="http://www.w3.org/2000/svg" viewBox="0 0 798.83 923.65"><title>anchor</title><g id="Layer_2" data-name="Layer 2"><g id="Layer_1-2" data-name="Layer 1"><g id="rvzqtC"><path d="M761.75,514.61l-113,108.09,34.17,10.11c-1.8,2.84-3.1,5-4.47,7C657,672.22,628.92,697.25,595,715.79c-40.25,22-83.78,33.06-129,38.2-7.22.82-14.46,1.37-22,2.07V347a16.66,16.66,0,0,1,2.7-.49c29.33,0,58.66-.07,88,.07a10.24,10.24,0,0,1,5.68,2.44,43.24,43.24,0,1,0,52.21-68.81c-16-11-36.75-9.92-52.12,2.45-1.68,1.35-4,2.65-6.08,2.66-28.83.18-57.66.08-86.49.18-3.25,0-4.34-1-4.3-4.31.14-13.33.23-26.67,0-40-.08-4,1.43-5.74,5-7.31,57.19-25.45,86-87.9,68.11-147.16S439.48-8.76,377.83,1.83c-53.29,9.16-95.7,55-100.25,108.36-4.9,57.43,28.17,108.32,82.84,127.23,3.59,1.24,5,2.76,4.88,6.63-.26,11.83-.33,23.67,0,35.49.14,4.7-1.35,5.87-5.89,5.85q-45.5-.28-91,0a17.62,17.62,0,0,1-11.81-3.9c-17.93-14-43.36-11.21-58.64,6-14.67,16.53-14.06,41.93,1.4,58.24s41.13,17.73,58.65,3.7a13.9,13.9,0,0,1,7.94-3c31.16-.2,62.33-.13,93.49-.12,1.78,0,3.55.19,5.3.28V755.37c-1.09,0-1.74,0-2.39,0-40-3-78.87-10.87-116.09-25.93-45.14-18.25-83.55-45.53-112-85.63-5.53-7.8-10.33-16.11-15.91-24.88l34.44-7.78L46.91,496C31.1,546.17,15.65,595.2,0,644.87c2-.26,3.26-.33,4.49-.6,8.79-1.92,17.54-4,26.34-5.81,10.54-2.2,7.89-3.63,12.81,6.12,48,95.08,121.3,163.06,219.21,204.51,36.47,15.44,74.68,24.29,114.17,27.45,3.07.25,4.62,1.44,5.93,4.17,6.05,12.62,12.32,25.13,18.54,37.66.76,1.53,1.68,3,3,5.28,7.33-14.85,14.26-28.67,21-42.6,1.39-2.87,2.94-4.16,6.3-4.43a368.21,368.21,0,0,0,115.55-28.09c88.45-37.63,157-98.11,206.05-180.76,2.35-4,4.1-9.83,7.55-11.16s8.77,1.75,13.23,3c7.92,2.24,15.82,4.57,24.71,7.14C786.38,615.69,774.2,565.69,761.75,514.61ZM399.82,184.89c-34.31.47-62.86-27.66-63.14-62.2a62.88,62.88,0,0,1,61.7-63.2C433.05,59,461.76,86.61,462.27,121A62.81,62.81,0,0,1,399.82,184.89Z"/></g></g></g></svg>