<svg xmlns="http://www.w3.org/2000/svg" viewBox="0 0 120.75 87.86"><title>book32</title><g id="Layer_2" data-name="Layer 2"><g id="Layer_1-2" data-name="Layer 1"><g id="Layer_2-2" data-name="Layer 2"><g id="Layer_1-2-2" data-name="Layer 1-2"><path d="M120.74,17.75a3.28,3.28,0,0,0-2.48-3.64c-2.54-1-5.09-2-7.65-2.91a1.12,1.12,0,0,1-.88-1.3c0-1.4,0-2.8,0-4.2,0-2.53-.82-3.68-3.29-4.09A111.31,111.31,0,0,0,95.28.11,41.92,41.92,0,0,0,70.83,5.8,37,37,0,0,0,60.45,15a.92.92,0,0,1-.27-.16,3.79,3.79,0,0,1-.32-.38,37.4,37.4,0,0,0-17.33-12C32.91-.91,23.2-.49,13.46,1.8A3.23,3.23,0,0,0,11,5.06c0,1.63,0,3.27,0,4.9a1.07,1.07,0,0,1-.84,1.22c-2.56.93-5.1,1.91-7.64,2.91C.6,14.84,0,15.75,0,17.82v66.4a5.72,5.72,0,0,0,.08,1.09,3.24,3.24,0,0,0,4.6,2.25,154.14,154.14,0,0,1,18.94-6.33c6.94-1.75,13.94-3,21.15-2.3,4.6.46,8.86,1.76,12.16,5.32,1.31,1.42,5.55,1.31,7,0,.17-.16.31-.35.48-.5a22.69,22.69,0,0,1,1.83-1.55A20.18,20.18,0,0,1,76,78.92,53.44,53.44,0,0,1,92,80a139,139,0,0,1,24,7.48c2.63,1,4.8-.43,4.8-3.27Q120.73,51,120.74,17.75ZM44,74.78c-6.68-.5-13.22.54-19.7,2.08a145,145,0,0,0-18.91,6c-.36.15-.74.27-1.29.46V82.23q0-31.71,0-63.4A1.22,1.22,0,0,1,5,17.45C7,16.77,8.86,16,11,15.16v1.52c0,16.67.05,33.33,0,50,0,3,2.13,4.53,4.86,3.91a47.37,47.37,0,0,1,22.67-.09,35.66,35.66,0,0,1,10,4.28q.33.21.66.45s.05.11.09.18C47.47,75.2,45.75,74.91,44,74.78ZM58.33,76v1.64C46,65.28,31.26,63.35,15.1,66.49V6.66c0-.55-.13-1.07.72-1.25,7.73-1.6,15.46-2,23.16.12A33.28,33.28,0,0,1,57.69,18.4a3.56,3.56,0,0,1,.62,1.92Q58.36,48.16,58.33,76Zm4.77,1c-.16.16-.34.28-.69.57V76.25q0-28,0-56A3.4,3.4,0,0,1,63,18.44,33.7,33.7,0,0,1,84.15,5C91.08,3.48,98,4,104.88,5.4c.87.18.78.71.78,1.31V66.38c-3-.38-5.9-.88-8.78-1.08C84,64.42,72.45,67.64,63.1,77Zm53.56-47.36V83.33c-3.53-1.25-6.87-2.49-10.24-3.6a96.94,96.94,0,0,0-21.59-4.84,42.89,42.89,0,0,0-12.34.44c-.31.06-.63.1-.94.15l-.13-.31c2-1,3.94-2.15,6-3A40.41,40.41,0,0,1,97.5,69.43c2.65.26,5.27.77,7.89,1.25s4.34-1,4.34-3.57V15.28c.4.11.71.16,1,.27,1.65.63,3.28,1.31,5,1.89a1.27,1.27,0,0,1,1,1.43C116.63,22.47,116.66,26.07,116.66,29.67Z"/></g></g></g></g></svg>