<svg xmlns="http://www.w3.org/2000/svg" viewBox="0 0 603.68 439.27"><title>book</title><g id="Layer_2" data-name="Layer 2"><g id="Layer_1-2" data-name="Layer 1"><path d="M603.67,88.77c0-10-3-14.55-12.39-18.24-12.7-5-25.43-9.94-38.27-14.55-3.49-1.25-4.53-3-4.4-6.48.25-7,.07-14,.07-21,0-12.63-4.11-18.41-16.45-20.43-18.54-3-37.16-6.42-55.86-7.51C433-2,391.83,6.55,354.12,29a184.24,184.24,0,0,0-51.89,45.87,7.22,7.22,0,0,1-1.37-.8c-.56-.61-1.08-1.27-1.6-1.92-23-28.49-52.06-48.41-86.62-60.23C164.52-4.54,116-2.44,67.26,9,59.67,10.83,55.15,17.2,55,25.32s-.2,16.34,0,24.5c.1,3.4-1,4.93-4.23,6.1C38,60.56,25.27,65.46,12.56,70.45,3,74.22,0,78.75,0,89.09q0,166,0,332a25.52,25.52,0,0,0,.39,5.46c2.26,10.37,12.43,15.42,23,11.25,31-12.25,62.33-23.48,94.67-31.65,34.7-8.77,69.73-15.18,105.76-11.52,23,2.34,44.32,8.82,60.79,26.64,6.56,7.09,27.78,6.53,34.81-.15.84-.81,1.55-1.76,2.42-2.52a115.41,115.41,0,0,1,9.13-7.75c14.6-10.27,31.32-14.4,48.74-16.24,27-2.83,53.56.34,80,5.6,41.31,8.23,80.95,21.87,120,37.38,13.19,5.24,24-2.13,24-16.33Q603.7,255,603.67,88.77ZM220.05,373.9c-33.44-2.48-66.13,2.72-98.5,10.41S57.86,402.53,27,414.56c-1.84.72-3.72,1.33-6.49,2.31v-5.74q0-158.49-.09-317c0-3.79,1.12-5.59,4.69-6.86C34.74,83.83,44.27,80,55,75.82V83.4c0,83.34.23,166.67-.2,250-.08,15.24,10.63,22.65,24.28,19.55,37.64-8.58,75.53-10.18,113.36-.43a176.13,176.13,0,0,1,49.82,21.37c1.13.71,2.23,1.46,3.31,2.24.23.17.28.57.46.94C237.33,376,228.72,374.54,220.05,373.9Zm71.6,6.1v8.22c-61.58-61.82-135.36-71.45-216.19-55.77V33.29c0-2.76-.61-5.36,3.63-6.24,38.66-8,77.3-10.12,115.77.59S265,59.29,288.44,92a17.63,17.63,0,0,1,3.09,9.6Q291.77,240.8,291.65,380Zm23.81,5.17c-.76.77-1.67,1.39-3.43,2.84v-6.77q0-140,.11-279.91a16.75,16.75,0,0,1,2.95-9.14C341.33,55.73,377.16,34,420.73,24.75c34.66-7.35,69.21-4.9,103.65,2.24,4.35.91,3.91,3.55,3.91,6.55q0,107,0,213.94v84.4c-15.21-1.9-29.52-4.39-43.93-5.37C419.82,322.12,362.22,338.18,315.46,385.17ZM583.3,148.33q0,131,0,261.91v6.39c-17.67-6.23-34.35-12.41-51.23-18C496.9,387,461.13,377.86,424.11,374.45c-20.66-1.91-41.25-1.86-61.7,2.21-1.54.31-3.11.49-4.67.74l-.68-1.54c10-5.08,19.74-10.76,30-15.13,32.17-13.65,65.94-17,100.42-13.58,13.23,1.3,26.35,3.83,39.44,6.23,12.66,2.32,21.72-4.84,21.72-17.84q0-126,0-251.91V76.39c2,.55,3.56.83,5,1.38,8.24,3.13,16.4,6.51,24.73,9.41,3.72,1.3,5.05,3.1,5,7.17C583.15,112.34,583.3,130.34,583.3,148.33Z"/></g></g></svg>