<svg xmlns="http://www.w3.org/2000/svg" viewBox="0 0 126.25 116.17"><title>camera232</title><g id="Layer_2" data-name="Layer 2"><g id="Layer_1-2" data-name="Layer 1"><g id="Layer_2-2" data-name="Layer 2"><g id="Layer_1-2-2" data-name="Layer 1-2"><path d="M94.58,38.62c8.54-7.91,9.66-20.28,2.52-29.24A24.39,24.39,0,0,0,78.11,0,26.6,26.6,0,0,0,62.84,4.38c-11.56,7.79-13.42,23.17-4,33.09A25.88,25.88,0,0,0,94.58,38.62ZM68.06,11.52a17,17,0,0,1,9.2-2.7A16.43,16.43,0,0,1,88.45,13,12.62,12.62,0,0,1,89.87,30.8c-.28.32-.57.63-.88.93-6.5,6.6-18.22,6.15-24.19-.92C59.65,24.75,61.14,16,68.06,11.52Z"/><path d="M42.65,37.74a21.12,21.12,0,0,0,2.2-27.6A24.35,24.35,0,0,0,25.27,0C18.7.06,13.41,1.73,8.76,5.3c-10.37,8-11.74,22.34-3,31.84C15.34,47.66,32.68,47.94,42.65,37.74ZM13.71,12.66A17,17,0,0,1,35.63,13,12.68,12.68,0,0,1,37,30.88a13.17,13.17,0,0,1-1.56,1.52c-7.14,6.24-18.87,5-24.19-2.56a12.77,12.77,0,0,1-2.34-7.43A13,13,0,0,1,13.71,12.66Z"/><path d="M126.23,55.74a2.12,2.12,0,0,0-.69-1.41,6.37,6.37,0,0,0-8.59.33L102,68.39c-.3.28-.61.54-1.07.94v-12a8.38,8.38,0,0,0-4.58-7.6,9.45,9.45,0,0,0-4.71-1.19H13.22c-4.9.2-8.76,3.88-8.77,8.55v50.5a8,8,0,0,0,3.22,6.5A9.76,9.76,0,0,0,14,116.17H91.83a8.94,8.94,0,0,0,9-8.88v-12l.25-.08,1,1.09,13.3,13.53a6.41,6.41,0,0,0,9.06.37l.13-.12a6.31,6.31,0,0,0,1-1,2.61,2.61,0,0,0,.6-1.37Q126.28,81.74,126.23,55.74Zm-29.95,48a7.87,7.87,0,0,1-7.87,7.87H18.56a7.88,7.88,0,0,1-7.86-7.87V61.2a7.85,7.85,0,0,1,7.85-7.87H88.41a7.87,7.87,0,0,1,7.87,7.87h0Z"/></g></g></g></g></svg>