<svg xmlns="http://www.w3.org/2000/svg" viewBox="0 0 397.25 300.91"><title>cap</title><g id="Layer_2" data-name="Layer 2"><g id="Layer_1-2" data-name="Layer 1"><path d="M393.92,71a43.17,43.17,0,0,0-7.26-3.29Q294.29,34,201.85.41a11.45,11.45,0,0,0-7.11.38c-30,10.58-60,21.12-89.81,32.06C71.81,45,38.83,57.49,5.84,70,3.62,70.85,1.94,73.1,0,74.7c1.87,1.94,3.39,4.63,5.68,5.69,6.78,3.13,13.81,5.76,20.83,8.35C37.73,92.87,49,96.81,60.65,101a22.63,22.63,0,0,1-.89,2.71C51,120.1,47.66,138,45.09,156.17a32.11,32.11,0,0,1-5.36,14.15c-7.78,10.54-8.19,25.54.3,35.48a10.22,10.22,0,0,1,2.7,8.51c-2.94,26.58-5.62,53.2-8.52,79.78-.49,4.49,1.26,6.84,5.58,6.82,10.65-.05,21.29-.35,31.93-.59,2.88-.07,4.17-1.71,4.06-4.53-.14-3.82,0-7.67-.44-11.46-2.68-23.94-5.54-47.86-8.11-71.81a8.87,8.87,0,0,1,2-6.08c9.71-11.17,9.88-24.67.66-36.24a14.7,14.7,0,0,1-3.24-8.93,105.76,105.76,0,0,1,11.4-43.55c4.09-8.11,5.09-8.37,13.61-5.41,33.94,11.8,67.84,23.73,101.85,35.34a16.37,16.37,0,0,0,10,0q87.57-30.83,175-62.1a150.67,150.67,0,0,0,15.26-6.17,7.59,7.59,0,0,0,3.46-4.82C397.44,73.64,395.33,71.85,393.92,71Z"/><path d="M306.93,162.82c-.38-7.54-.93-15.06-1.43-23-2.46.75-4.2,1.24-5.91,1.83-31.13,10.8-62.28,21.54-93.37,32.48a22,22,0,0,1-15.45-.08c-26.67-9.45-53.42-18.67-80.15-28-5.93-2.07-11.87-4.1-19.11-6.59-.87,21.09-1.76,41-2.5,60.89-.36,9.54,4.09,16.89,11.08,23,9.07,7.9,19.64,13.21,31,16.76,41.42,12.93,83.3,13,125.26,3.06,14.82-3.51,28.78-9.5,40.54-19.63,7.6-6.55,12-14.68,11.66-24.85C308.15,186.72,307.54,174.77,306.93,162.82Z"/></g></g></svg>