<svg xmlns="http://www.w3.org/2000/svg" viewBox="0 0 1325.19 111.07"><title>cast</title><g id="Layer_2" data-name="Layer 2"><g id="Layer_1-2" data-name="Layer 1"><path d="M.07,65c21.93-.75,43.81-.67,65.67-.43s43.7.87,65.53,1.69,43.63,2,65.44,3l65.43,3.21Q393,78.88,523.86,84.62c87.25,3.86,174.5,7.4,261.78,10q65.45,2,130.92,3c43.64.72,87.28,1.37,130.92,1.54s87.29-.11,130.88-2c21.79-1,43.56-2.41,65.24-4.75,10.83-1.22,21.64-2.63,32.35-4.6,5.36-1,10.69-2.1,16-3.42a122.52,122.52,0,0,0,15.52-4.87,59.6,59.6,0,0,0,7.31-3.46,26.08,26.08,0,0,0,6.33-4.81,9.78,9.78,0,0,0,2.91-6.93,13,13,0,0,0-2.89-7.15,35.11,35.11,0,0,0-5.62-5.75,75.42,75.42,0,0,0-6.54-4.82,123.84,123.84,0,0,0-14.22-8,209.24,209.24,0,0,0-30.53-11.57c-10.44-3.16-21-5.73-31.73-8-21.36-4.45-43-7.58-64.69-10s-43.48-4.12-65.28-5.4c-43.6-2.48-87.3-3.29-131-3.1S884.15,2,840.51,3.77,753.24,8,709.67,11.09,622.55,17.65,579.08,22l-.1-1c43.5-4.22,87-7.63,130.64-10.61S796.83,5,840.48,3.16,927.81.22,971.5,0s87.4.52,131,3c21.81,1.25,43.6,2.91,65.32,5.32s43.38,5.5,64.79,9.93c10.7,2.24,21.34,4.8,31.81,8a210.25,210.25,0,0,1,30.69,11.59,130.09,130.09,0,0,1,14.36,8,73.13,73.13,0,0,1,6.67,4.85,36.63,36.63,0,0,1,5.84,5.9,14.13,14.13,0,0,1,3.17,7.8,10,10,0,0,1-.81,4.25,13.5,13.5,0,0,1-2.34,3.58,27.47,27.47,0,0,1-6.59,5.16A60.26,60.26,0,0,1,1308,81c-10.22,4.13-20.93,6.7-31.65,8.92s-21.55,3.91-32.39,5.39c-21.69,3-43.48,5.09-65.28,6.87s-43.64,3.15-65.49,4.31-43.7,2-65.56,2.74-43.73,1.14-65.59,1.47q-16.39.27-32.8.34t-32.8.06c-43.72-.09-87.44-.63-131.15-1.38q-131.13-2.25-262.15-7.44c-87.35-3.37-174.64-7.82-261.89-12.88l-65.43-4C174,84,152.19,82.66,130.41,80.91s-43.56-3.77-65.3-6.2S21.65,69.59,0,66Z"/></g></g></svg>