<svg xmlns="http://www.w3.org/2000/svg" viewBox="0 0 90.48 146.03"><title>minnow32</title><g id="Layer_2" data-name="Layer 2"><g id="Layer_1-2" data-name="Layer 1"><g id="Layer_2-2" data-name="Layer 2"><g id="Layer_1-2-2" data-name="Layer 1-2"><path d="M53.4,73.79c.09,2.44.69,3,3.14,3.09A11.75,11.75,0,0,1,62.25,78c1.3.72,2.24,1.58,2.12,3.3-4.24,1.22-8-.16-11.54-2.53-.38,1.74.35,3.21,1.75,3.63,1.7.5,3.44.83,5.13,1.31,2.44.69,2.88,1.27,3.13,3.76.13,1.36-.25,1.82-1.56,1.49-1.9-.49-3.75-1.15-5.59-1.8-1-.38-2-.91-3.23-1.45.23,1.73.7,2.89,2.38,3.4,1.49.46,2.87,1.28,4.33,1.85s1.57,1.81,1.6,3-.76,1.34-2.1.87a18.67,18.67,0,0,1-6.92-4.56c.27,1.69.36,3.24,1.65,4.47a20.74,20.74,0,0,1,2.54,3.06,3,3,0,0,1,.6,1.74,2.07,2.07,0,0,1-.78,1.56,1.88,1.88,0,0,1-1.63-.55C53,99.5,52,98.27,50.9,97c-.13,1.51-.17,3.08-.44,4.61a7.92,7.92,0,0,1-1.1,3.54,5.2,5.2,0,0,0-.28,4.29,99.43,99.43,0,0,0,6.59,13.62,39.2,39.2,0,0,0,12.65,13c2.17,1.34,4.29,2.77,6.47,4.1a41.69,41.69,0,0,0,13.95,4.94l1.74.36c0,.19-.06.38-.08.56a30.9,30.9,0,0,1-3.48-.42,54.38,54.38,0,0,1-27.25-15.26,51.24,51.24,0,0,1-10.57-16c-.56-1.31-.9-2.7-1.47-4-.26-.6-.67-1.48-1.65-.73-.06,0-.19,0-.28,0-.76,0-1.86-.38-2.2,0a12.25,12.25,0,0,0-1.57,2.93c-1.83,3.68-3.26,7.64-5.57,11a52.82,52.82,0,0,1-20.26,17.6A55.36,55.36,0,0,1,2.4,145.8,17.52,17.52,0,0,1,.11,146L0,145.57c.54-.15,1.08-.33,1.63-.44A43,43,0,0,0,15,140.6c6.87-3.91,13.51-8.23,18.05-14.85,2.76-4,4.82-8.52,7.15-12.83a20.25,20.25,0,0,0,1.08-2.74,6.36,6.36,0,0,0-.59-5.71,8,8,0,0,1-.63-3c-.2-1.5-.31-3-.45-4.4-1.11,1.23-2.15,2.48-3.31,3.61a1.89,1.89,0,0,1-1.55.45,1.66,1.66,0,0,1-.72-1.3,3.44,3.44,0,0,1,.51-1.9,14.75,14.75,0,0,1,2.23-2.75c1.4-1.3,1.85-2.93,2-5.13-1.71,2.49-4.07,3.52-6.41,4.55-.79.34-1.74,1-2.47-.1-.55-.84.11-2.87,1.08-3.34,1.41-.68,2.88-1.25,4.31-1.9,2-.93,2-.94,2.83-3.54-1.08.47-2,.9-2.91,1.24-1.89.69-3.77,1.4-5.69,2-1.57.44-1.85,0-1.85-1.6,0-2.15,1.2-3.09,3-3.57s3.35-.78,5-1.25S38,80.84,37.8,78.86c-1.88.94-3.62,2.2-5.54,2.64s-4,.1-6.08.1a3.14,3.14,0,0,1,1.71-3.37A11.54,11.54,0,0,1,34,76.88c2.45,0,3.05-.66,3.11-3.07-2.05.68-4.08,1.37-6.12,2a7.46,7.46,0,0,1-2.29.49c-.54,0-1.4-.34-1.55-.74a2,2,0,0,1,.29-1.84,18.24,18.24,0,0,1,3.77-2.08c1.12-.47,2.36-.64,3.52-1a2.89,2.89,0,0,0,2-2.71c-2.49,1-4.6,3.26-7.82,2A14.68,14.68,0,0,1,36,64.56c-.31-1-.6-2-.93-3.06a23.48,23.48,0,0,1-2.34,1.62c-1,.51-2.08.61-2.74-.49s.13-1.82,1-2.42l.37-.23c3.09-2,3.09-2,1.4-5.86-1.15,1.46-2.33,2.74-3.25,4.18-1.13,1.77-2,3.73-3.08,5.53a4.28,4.28,0,0,1-1.83,1.51A1.38,1.38,0,0,1,22.49,64c-.11-1.47,0-3,0-4.42V58.17l-1.8.77-.26-.38c.92-.55,1.8-1.49,2.74-1.56,1.48-.09,1.23,1.45,1.45,2.75,1.66-2.28,3.14-4.34,4.64-6.38.46-.62,1.05-1.16,1.48-1.8a6,6,0,0,0,1.37-2.45c.18-2.67.07-5.35.07-8.13C30,42.81,27.88,44.6,25.8,46.43c-1.43,1.27-2.79,2.62-4.18,3.94a2.34,2.34,0,0,1-3.84-1.07c-.31-1.29-.55-2.6-.81-3.89-.4-2-.92-2.46-2.91-2.66-.51,0-1-.06-1.74-.09A2.33,2.33,0,0,1,15.1,42c1.94.7,3,2.27,4,4,.23.43.4.89.58,1.31,3-2.6,5.89-5.17,8.85-7.72.85-.74,1.88-1.28,2.67-2.07a19.45,19.45,0,0,0,2.68-3.26A23.89,23.89,0,0,0,35.38,31a17.15,17.15,0,0,1-.32-2.63c.09-1.4-.05-2.63-1.46-3.25-3.44,2.22-7.5,2.5-11.23,3.7a4.32,4.32,0,0,1-2.48-.29A1.8,1.8,0,0,1,19,27.32c-.06-.21.47-.6.77-.87,1.53-1.3,3.09-2.56,4.6-3.87s2.83-2.58,4.3-3.8a2.65,2.65,0,0,1,1.55-.54c.26,0,.53.57.8.88a6.93,6.93,0,0,0-1,.37,8.07,8.07,0,0,0-2.17,1.3c-1.11,1.2-2,2.56-3.08,3.9l1.46-.27c3.21-.58,6.43-1.15,9.64-1.77a10.45,10.45,0,0,0,1.85-.86,15.57,15.57,0,0,0-1.85-1.19,2.78,2.78,0,0,1-1.65-3.2,4.87,4.87,0,0,1,3.21-3.85c3.85-1.54,3.82-1.61,1.88-5.2A89.09,89.09,0,0,1,35.17,0C37.06,3,39,6,40.82,9.08a4,4,0,0,0,3.7,2.14c3.1.26,4.72-.92,6.06-3.52a48.36,48.36,0,0,1,5-7.53l-5.08,9.4c-1.1,2-1,2.4,1.07,3.37.84.4,1.72.73,2.54,1.16,2,1.07,2.85,4.06,1.57,5.65a5.18,5.18,0,0,1-1.14.84c-.47.31-1,.6-1.49.95a3.74,3.74,0,0,0,3.7,1.62c2.93-.08,5.58,1,8.38,1.46l.68,0C64.4,23,63.1,21.47,61.7,20c-.3-.31-.93-.31-1.41-.45-.25-.07-.7-.13-.7-.2a1.35,1.35,0,0,1,.21-.89c.69-.66,1.34-.33,1.94.21,2.07,1.88,4.13,3.78,6.24,5.62a23.21,23.21,0,0,0,2.91,2.21c1,.64.88,1.37.07,1.8a4.34,4.34,0,0,1-2.72.52c-2.63-.56-5.23-1.33-7.81-2.11-1.18-.35-2.3-.92-3.73-1.51-1.18.49-1.37,1.73-1.24,3.2a4.83,4.83,0,0,1-.39,2.05c1.12,2.69,2.11,5.56,4.7,7.51,2.94,2.22,5.71,4.65,8.52,7,.86.72,1.63,1.55,2.5,2.39,1.11-2.37,2.28-4.74,5.07-5.46a6,6,0,0,1,2.18.28l0,.46-1.46.1c-2.07.18-2.6.66-3,2.7-.26,1.3-.5,2.6-.81,3.89a2.35,2.35,0,0,1-3.86,1c-3.44-3.14-6.89-6.26-10.69-9.7.07,1.09.14,1.78.16,2.47,0,1.82,0,3.64.12,5.44A4.88,4.88,0,0,0,59.16,51c1.65,2.24,3.46,4.36,5.19,6.54.48.6.9,1.26,1.47,2.05.41-1.09.08-2.76,1.58-2.62,1,.09,1.85,1,2.76,1.56-.07.13-.15.26-.22.4l-1.74-.76A9,9,0,0,0,68,59.37c0,1.27.09,2.55.07,3.83,0,.92,0,2.2-1.18,2.16A3.78,3.78,0,0,1,64.26,64c-1.23-1.76-2-3.82-3.17-5.65-.92-1.47-2.11-2.78-3.42-4.47-.42,1.51-.78,2.62-1,3.76a1.21,1.21,0,0,0,.5.9c.82.63,1.71,1.16,2.55,1.75s1.39,1.2.9,2.21a1.72,1.72,0,0,1-2.42.73,17.68,17.68,0,0,1-2.69-1.7l-1,3a14.76,14.76,0,0,1,7.08,5.2c-2,1.06-2.36,1-7.67-1.85-.06,1.76,1.08,2.51,2.46,3,1,.33,2,.42,3,.76a15.86,15.86,0,0,1,3.17,1.43,1.92,1.92,0,0,1,.91,2.54c-.52,1.06-1.6.86-2.48.61-2.17-.63-4.31-1.37-6.45-2.07Z"/></g></g></g></g></svg>