<svg xmlns="http://www.w3.org/2000/svg" viewBox="0 0 207.91 76.75"><title>perdigone32</title><g id="Layer_2" data-name="Layer 2"><g id="Layer_1-2" data-name="Layer 1"><g id="Layer_2-2" data-name="Layer 2"><g id="Layer_1-2-2" data-name="Layer 1-2"><path d="M100.13,67.06,1.21,68.78l101.87-1.54,4.16,1.81s22.49,1.88,25.8,2.33,35,3.12,43.61,1.75a25.66,25.66,0,0,0,3.89,2.11c4,1.83,11,2.29,16.82-.28,9.33-4.12,17-18.49,2.43-32.68,0,0,4.44-3.57.5-11.26-2.38-4.63-9.47-3.75-10.74-3.16s-5.63,3.06-6,7.44l2.65,4.28a32.19,32.19,0,0,0-5.69,2c-1.37.85-3.74,2.4-4.11,3a9.9,9.9,0,0,1-3.2,2.6,32.52,32.52,0,0,1-6.59,2c-2.25.38-2.82-.13-4.85.49S147.8,52.38,146,52.33s-15.36,2.07-16.43,2.13-18.94,2-18.94,2-9,1.54-9.35,1.71-.28.35-.28.35-4.19-.49-4.72-.67c-5.23-1.76-8.69-3.24-18.66-11.17-5.25-4.17-25.22-36.81,8.27-40,24.5-2.36,50,7.05,50,7.05S126.61,8,122,5.77C112.87,1.44,112.3,2,102.61.83,86.08-1.12,76.67.55,71.2,4s-11,10.88-10.63,18.4S63.94,59,101,64.67L0,64.27l96.78,1.27L1.18,66.8ZM191.7,33.92a3.2,3.2,0,1,1-1.55,4.25,3.19,3.19,0,0,1,1.55-4.25Z"/></g></g></g></g></svg>