<svg xmlns="http://www.w3.org/2000/svg" viewBox="0 0 166.78 69.29"><title>pupa32</title><g id="Layer_2" data-name="Layer 2"><g id="Layer_1-2" data-name="Layer 1"><g id="Layer_2-2" data-name="Layer 2"><g id="Layer_1-2-2" data-name="Layer 1-2"><path d="M30.27,18.51c-.5-.77-1-1.54-1.52-2.3-.22-.32-.49-.62-.83-1-.51,1.12-1.81,1.52-1.42,3a1.46,1.46,0,0,1,.05-2c1.91-2.7,4.65-4.47,7.17-6.49a7.29,7.29,0,0,1,4.43-2,6.61,6.61,0,0,0,3.52-1.17A17.2,17.2,0,0,1,45.87,5a7.49,7.49,0,0,1,1.92,0,5.07,5.07,0,0,1,3.6-2.22c3.54-.2,7.1-.27,10.65-.33.41,0,.82.36,1.34.6.42-.86,1.32-.47,2.15-.49s1.62-.2,2.44-.22c2.27,0,4.54,0,6.81-.06l.57,0c.26,0,.57-.2.78-.11,1.54.64,2.92-.34,4.4-.39s3-.2,4.47-.31c2.64-.18,5.29-.4,7.93-.5a11.51,11.51,0,0,1,2.39.52,2,2,0,0,0,1-.1c1.8-.73,3.6-1.47,5.58-1.15A8.57,8.57,0,0,1,107,2.59c.46-.49.84-1.16,1.41-1.45a4.54,4.54,0,0,1,2-.26c1.86.06,3.72.32,5.58.26a27.74,27.74,0,0,0,3.6-.74,36.1,36.1,0,0,1,11,.07,40,40,0,0,1,5.1.9,10.66,10.66,0,0,1,3.15,1.42,5.72,5.72,0,0,1,2.55,6.15c0,.29-.11.58-.16.88,0,0,0,0,0,0l9.91-1a1,1,0,0,1,.49,0c1.46.55,2.67-.18,3.95-.7,2.33-.93,4.44-.2,5.4,1.87a4.74,4.74,0,0,1,.11,1.4c3.42,2.09,4.65,5.85,5.46,9.81A7.87,7.87,0,0,1,165.51,27c-.17.29-.68.69-.86.6-.82-.34-1.15.27-1.7.62a22,22,0,0,1-4.2,2.4c-2.44.94-5,1.6-7.51,2.35a6.92,6.92,0,0,1-5.6-.64c-1.46-.83-2.88-1.74-4.41-2.67A13.76,13.76,0,0,1,135,33.16l-.48.11A13.37,13.37,0,0,0,130,34.68a6.5,6.5,0,0,1-6.32-.22c-1.5-.82-3-1.68-4.5-2.46-.24-.12-.68,0-1,.18-4.79,2-9.53,4.08-14.36,6-10.19,3.95-20.42,7.8-30.64,11.66-.42.16-.89.68-1.4,0-.07-.09-.6.14-.89.28-5.84,2.8-11.62,5.73-17.53,8.38-4.18,1.89-8.56,3.3-12.76,5.11a118,118,0,0,1-17.36,5.53,6.83,6.83,0,0,1-.88.17c-.05,0-.11-.05-.26-.13.17-.12.29-.28.44-.32C32.12,66.5,40.79,62,49.62,57.79c10.23-4.86,19.8-10.88,29.8-16.16a.52.52,0,0,0,.27-.4c-.9.2-1.82.34-2.7.58a33.83,33.83,0,0,1-11.69.72,9.58,9.58,0,0,0-5,1c-5,2.37-10.17,4.58-15.29,6.78-3.16,1.36-6.58,1.26-9.92,1.35-4.38.12-8.78.14-13.16,0a53,53,0,0,1-6.69-1c-.57-.09-1.2-.31-1.07-1.05s.87-.69,1.45-.64c3.64.33,7.29.62,10.92,1a48.79,48.79,0,0,0,25.58-4.07c2.69-1.2,5.46-2.22,8.37-3.4-.74,0-1.32,0-1.88,0a4.56,4.56,0,0,1-1.26-.31c-1.35-.55-1.53-1.51-.54-3a1.35,1.35,0,0,0-.4,0,86.47,86.47,0,0,1-23.26,5.32,94.48,94.48,0,0,1-9.64.71,54.36,54.36,0,0,1-8-.73c-3.58-.5-7.15-1.16-10.72-1.77a2.3,2.3,0,0,1-.5-.18l0-.33a43.89,43.89,0,0,1,7,.41,48.74,48.74,0,0,0,18.45.23,218.77,218.77,0,0,0,29.83-7.49,55.56,55.56,0,0,0,5.82-2.56.74.74,0,0,0,.36-.5c-1.93.58-3.85,1.2-5.8,1.73-8.12,2.2-16.22,4.45-24.37,6.55-4.57,1.18-9.25.88-13.9.44Q12.85,40.14,4,39.24c-1-.1-2.11-.23-3.16-.35v.24l29.51-1.59a10.23,10.23,0,0,1-4.5-2.33,1.73,1.73,0,0,0-1-.35,23.73,23.73,0,0,1-7.72-1.37c-1.2-.44-2.54-.48-3.77-.84a26.41,26.41,0,0,1-2.67-1.18c-.62-.27-1.25-.52-1.88-.74a9,9,0,0,1-2-.67,9.86,9.86,0,0,0-5.4-1.8A3.32,3.32,0,0,1,0,27.89c7.87.69,15.66,1.76,23.29,4.31-.1-.23-.17-.46-.28-.67a15.69,15.69,0,0,1-1.54-5.1,18.26,18.26,0,0,1-.6-3,5.33,5.33,0,0,1,4.3-5.15,1.87,1.87,0,0,1,1.25.42A4,4,0,0,1,28,21.37a1.78,1.78,0,0,0,.64,1.05,9.66,9.66,0,0,1,3.45,3.24c0,.09.09.22.16.25,1.65.65,1.55,2.14,1.7,3.5.12,1.05.22,2.1.33,3.2a3.39,3.39,0,0,0,1.54-4.23,56.47,56.47,0,0,0-3-7.22,12.87,12.87,0,0,0-2.51-2.67c.54.23,1.22.31,1.58.7a12.66,12.66,0,0,1,2.11,2.86c1.31,2.64,2.53,5.32,2.44,8.53a8.11,8.11,0,0,1,5.28-1.26,3.31,3.31,0,0,0,2.57-1.12c1.85-1.89,3.68-3.82,6.06-4.85A13.47,13.47,0,0,1,48.79,20a33.25,33.25,0,0,0-1.25-4c-.45-1.56-.75-3.16-1.12-4.74-.05-.2-.11-.4-.2-.73C44.33,12.26,42.05,12,39.68,12c.33,5-.14,10.11,3.75,14.26-3.3-1.77-5.1-9.83-3.82-18a8.36,8.36,0,0,0-4.67.8c1.14.59,1.19.7,1.07,2,0,.3,0,.6,0,.9-.21,3.35-1.52,4.91-4.79,5.71l-.84.23C30.3,18.06,30.29,18.29,30.27,18.51Zm-2.49,14c-.54-.7-1.12-1.38-1.62-2.12s-1-1.74-1.53-2.55c-.9-1.27-.93-1.25-2.52-.71a13.39,13.39,0,0,0,2.76,6.28c1,1.22,1.91,1.22,3,.09.4-.43.36-.72-.1-1,.48.19.82.12,1-.46.21-.86.53-1.71.7-2.6.29-1.5.65-2.92,2.68-3.6L28,22.59c-.76,1.75-.76,1.75-3.55,3.79C25.57,28.41,26.68,30.45,27.78,32.47Zm34.48-11c.15.05.35.2.44.14,1.92-1.07,3.84-.77,5.77,0a.73.73,0,0,0,.6-.16c.8-.6,1.53-1.29,2.37-1.8a27.28,27.28,0,0,1,2.63-1.2c.14.86.24,1.43.34,2,.93-.46.94-.47.72-1.29a23.31,23.31,0,0,1-.48-10.76c.35-1.76.36-3.68,2-4.94a5.72,5.72,0,0,0,.66-.73c-1.51-.39-2.76,0-3.39,1a8,8,0,0,0-1.2,2.7c-.45,2.84-.75,5.72-1,8.6-.11,1.21,0,2.44,0,3.67a39.22,39.22,0,0,1,.55-12.92H63.6l2.28-2.72a4.41,4.41,0,0,0-4,2,14.42,14.42,0,0,0-1.64,10.57c.39,1.74,1.09,3.4,1.65,5.1A16.33,16.33,0,0,1,60.54,6.19a5.68,5.68,0,0,1-4,1.33c-1.47-.06-2.94,0-4.19-1-.6-.45-.9-.93-.36-1.67a13.59,13.59,0,0,0,.86-1.66,5.43,5.43,0,0,0-5.72,4.61,13.59,13.59,0,0,0,.49,7.07c.52,1.71,1.16,3.37,1.78,5.05a12.07,12.07,0,0,0,1.15,2.71c.9,1.34,2.46,1.64,3.92,1.9.51.09,1.14-.44,1.72-.7.24-.11.45-.29.69-.38,1.69-.57,3.39-1.11,5.08-1.68C62.08,21.77,62.16,21.6,62.26,21.5ZM84.2,4.33a3.73,3.73,0,0,0-1.28.16,11.23,11.23,0,0,1-6,1.45c-.93,0-1.34.28-1.43,1.16-.24,2.4-.65,4.8-.7,7.2a38.34,38.34,0,0,0,.63,5.36c2.08-1.3,4-2.46,5.83-3.65a1.25,1.25,0,0,0,.42-.71,7.43,7.43,0,0,1,2-3.58,2,2,0,0,0,.47-1.27C84.23,8.47,84.2,6.49,84.2,4.33Zm.39.11V11l8-6.06c-2.55-1.45-5.18-.93-8-.51ZM58.41,31.68a5.69,5.69,0,0,0,4.8-1.14ZM35.38,37l-1.47-1L32.08,37.3ZM84.63,2.08,83.05,3.83C84.3,4.05,84.3,4.05,84.63,2.08ZM77.38,19.33l-.2-.16c-.33.67-1.78.6-1.15,2.1Z"/></g></g></g></g></svg>