<svg xmlns="http://www.w3.org/2000/svg" viewBox="0 0 35.13 101.23"><title>rockworm32</title><g id="Layer_2" data-name="Layer 2"><g id="Layer_1-2" data-name="Layer 1"><g id="Layer_2-2" data-name="Layer 2"><g id="Layer_1-2-2" data-name="Layer 1-2"><path d="M25,4a1.94,1.94,0,0,1,0,.2c-.23.64-.8,1.29-1.08,2a10.68,10.68,0,0,1-1,2,10.22,10.22,0,0,0-1.63,2.48,9.23,9.23,0,0,0-.6,2.7c0,.28.46.26.69.43a1.74,1.74,0,0,1,.6,1c.1.37.13.75.2,1.13a11.8,11.8,0,0,0,.4,1.44c.15-.12.28-.07.41.06.36.39.26,1.22.3,1.69a.5.5,0,0,0,.08.27.46.46,0,0,0,.36.17c1.12.11,2.08-.72,2.89-1.49l1.14-1.08a3,3,0,0,0,1-1.35.51.51,0,0,1,.13-.29c.16-.16.46,0,.51.23a1,1,0,0,1-.17.64L28,18.28c-.17.32-.51.53-.64.85a5.94,5.94,0,0,1-.18.6c-.28.69-1.13.9-1.76,1.29a5,5,0,0,0-1.7,2.05c-.15.35,0,.6-.11.93a3,3,0,0,1-.7,1c.3.24.29,1.11.2,1.49A1.45,1.45,0,0,0,23,27a.93.93,0,0,0,.13.35l1,1.9a2.17,2.17,0,0,1,.36,1.66,3.1,3.1,0,0,0,.8,2.84c.31.2,1.26.91,1.6.84a1.22,1.22,0,0,0,.46-.25,3.52,3.52,0,0,1,2.95-.52,6.05,6.05,0,0,0,.64.24c.68.16,1.47-.32,2.08.05a2,2,0,0,1,.6.8,8.13,8.13,0,0,0,1.51,2l-1.92-1.6a2,2,0,0,0-.65-.4,2.09,2.09,0,0,0-.66,0l-4.26.38a1.23,1.23,0,0,0-.62.17,4.17,4.17,0,0,0-.36.37c-.49.46-1.19.17-1.76.4s-1.06.6-1.59.84A6,6,0,0,1,24,39.4a1.09,1.09,0,0,1,0,.26,1.13,1.13,0,0,1-.4.44,4.24,4.24,0,0,0-1.18,1.45c.31.06.38-.15.58.09a9,9,0,0,1,1.39,2.2,3.58,3.58,0,0,1,.34,1.28,4.25,4.25,0,0,1-.46,1.8c-.23.58-.87.76-1.24,1.2-.56.67.22,1.09.63,1.64a4.68,4.68,0,0,1,.73,1.84,7.2,7.2,0,0,1,.15,1.31,5,5,0,0,1-1,2.83c-.51.8.13,1.15.54,1.78a4.2,4.2,0,0,1,.76,2,12.64,12.64,0,0,1,0,2.46,5.45,5.45,0,0,1-.56,1.81c-.11.2-.85,1.28-1.17,1a3.93,3.93,0,0,1,1.45,2.27,7.69,7.69,0,0,1,.46,1.72,8.26,8.26,0,0,1-.6,2.74c-.27.57-1.34.55-1.18,1.31.12.6,1,1.54,1.16,2.2a3.89,3.89,0,0,1-.8,3.6c-.42.46-1,.94-.91,1.56.08.42.47.71.7,1.07a2.29,2.29,0,0,1-.11,2.3,15,15,0,0,1-1.49,1.9c-.51.69.12,1.69.32,2.53a6.29,6.29,0,0,1,.39,2.56c-.26,1.3-1.62,2.22-1.69,3.54q1,2.68,2,5.38c.11.32.2.73-.06.94s-.9-.27-1.07-.76l-1.4-4a.55.55,0,0,0-.71.33,1.61,1.61,0,0,0,0,.87l.37,2.51a2.44,2.44,0,0,1,0,1.2.83.83,0,0,1-.94.58c-.47-.13-.6-.73-.64-1.22l-.4-4.65A1.33,1.33,0,0,1,18,94.2c.29-.28.85-.42.75-.8-.05-.2-.28-.28-.46-.36A3.18,3.18,0,0,1,17,88.37a2.46,2.46,0,0,0,.63-1A1.32,1.32,0,0,0,17,86.12c-.8-.54-1.29-.46-1.61-1.35a4.89,4.89,0,0,1,.55-3.17,2.64,2.64,0,0,0,.37-1c.05-.94-1-1.47-1.68-2.12a3.26,3.26,0,0,1-.87-3.17c.22-.78,1.14-1.25,1.51-1.94.49-.89-.07-1.53-.76-2.13a5.16,5.16,0,0,1-1-1,3.75,3.75,0,0,1,2-5.37c-.63-.09-1.67-.24-2-.85a3.29,3.29,0,0,1-.38-1.26A16.6,16.6,0,0,1,13,59a2.34,2.34,0,0,1,.19-.82c.29-.59,1-.88,1.26-1.49-1.91-2.2-2.57-5-1.14-7.56a.66.66,0,0,0,.11-.26c.06-.32-.28-.55-.52-.77a3,3,0,0,1-.71-2.36,8.39,8.39,0,0,1,1.29-4.1,4.73,4.73,0,0,1,.21-4.74c-.34.49-.86-.56-.93-.65a1.36,1.36,0,0,0-1.6-.43c-.19.09-.35.23-.53.33a3.56,3.56,0,0,1-1.51.35l-2.92.23a1.11,1.11,0,0,1-.88-.17c-.09-.08-.16-.2-.28-.24a.62.62,0,0,0-.33,0,4.82,4.82,0,0,0-2.2,1.18.73.73,0,0,1-.49.27.84.84,0,0,1-.27-.08,1.22,1.22,0,0,0-1.37.41,1.24,1.24,0,0,0-.07,1.4A1.67,1.67,0,0,1,.45,37.4a4.59,4.59,0,0,1,2-1.17,16.05,16.05,0,0,1,3.39-.92,11.35,11.35,0,0,1,1.39-.2c.36,0,.74.36,1.1.24s.36-.32.55-.47c.4-.29,1-.16,1.33-.55a1.4,1.4,0,0,0,.17-.76.77.77,0,0,1,.35-.67,3.55,3.55,0,0,1,.47-.06c.44-.09.91-.86,1-1.27.15-.62-.32-1.24-.15-1.87a1.55,1.55,0,0,1,1-.89,2.87,2.87,0,0,0,1.16-.7c.08-.89-.6-1.41-1.05-2.2a3.61,3.61,0,0,1-.49-1.76,1.24,1.24,0,0,0,0-.47c-.17-.49-.53-.25-.84-.38a10.57,10.57,0,0,0-1.42-.73,16.44,16.44,0,0,0-1.79-.74,5.83,5.83,0,0,1-1.94-.68l-3.51-2c.82.41,1.86-.19,2.7.17a6.4,6.4,0,0,0,.82.43,2.57,2.57,0,0,0,.68.05,2.87,2.87,0,0,1,2.06,1,1.16,1.16,0,0,0,.36.3c.33.12.64-.2,1-.36a4.91,4.91,0,0,1,1.49-.16c1.47-.2.45-1.2.51-1.95,0-.28.28-.48.45-.71.56-.72.34-1.8.76-2.6a3.73,3.73,0,0,1,1.34-1.21,2.09,2.09,0,0,1-1.11-1.57c-.05-.32,0-.66,0-1a3,3,0,0,0-.56-1,10.18,10.18,0,0,1-.69-1.92c-.08-.22-.31-.48-.52-.36a2.45,2.45,0,0,1-.94-.78A2.11,2.11,0,0,0,11,7.05a2.73,2.73,0,0,0-.6-.28C9.77,6.5,7.49,3.23,9,3.27a.63.63,0,0,1,.35.13,9.51,9.51,0,0,1,1.21,1.77,5,5,0,0,0,1.29,1.35c.39.24.84.37,1.23.61a10.3,10.3,0,0,1,1.75,1.8c.08.09.2.18.3.15a.4.4,0,0,0,.17-.17c.13-.24.15-.65.49-.65a3,3,0,0,1-.93-2.12c-.22-1.54-.78-4.84,1-5.79A2.72,2.72,0,0,1,17,.1L18.34,0A2.54,2.54,0,0,1,19.4.11c.88.36,1.28,1.86,1.45,2.7a5.19,5.19,0,0,1-.48,3.44,5,5,0,0,0-.22,1.91.85.85,0,0,0,.74-.11,2.56,2.56,0,0,0,.55-.54l1.41-1.73a2.92,2.92,0,0,0,.55-.87,2.3,2.3,0,0,1,.85-1.18C24.71,3.47,25,3.59,25,4Z"/></g></g></g></g></svg>