<svg xmlns="http://www.w3.org/2000/svg" viewBox="0 0 54.76 28.5"><title>scud32</title><g id="Layer_2" data-name="Layer 2"><g id="Layer_1-2" data-name="Layer 1"><g id="Layer_2-2" data-name="Layer 2"><g id="Layer_1-2-2" data-name="Layer 1-2"><path d="M37.8,4.57A2,2,0,0,0,39,4.65a24.81,24.81,0,0,1,5.38,1.19c2.4.9,9.6,3.8,10.4,4.2a8.65,8.65,0,0,0-2.2-1.2c-1.8-.8-8.9-3.5-11-4-.62-.15-1.22-.26-1.85-.41a4.63,4.63,0,0,0-.84-.17,5.46,5.46,0,0,1-.69-.1,4.6,4.6,0,0,1-.59-.29,3.19,3.19,0,0,0-1-.32c-.23,0-.47,0-.7-.1a1.94,1.94,0,0,1-.78-.37c.51-.23,1-.5,1.53-.73a2.21,2.21,0,0,1,.51-.18l.28,0,.3-.11L39,1.5A12.47,12.47,0,0,1,40.85,1a32.49,32.49,0,0,1,3.6-.4c1.2-.2,9.9-.3,10.1-.3,0,0-7.2-.6-10.4-.2s-6.5,1.4-6.8,1.4a5.88,5.88,0,0,0-1.45.18l-.62.15-2.62.64S27.35-.76,15,2.74A14.58,14.58,0,0,0,9.4,5.64a1.8,1.8,0,0,1-.21-.35.91.91,0,0,1-.65-.23C8.35,4.92,8.2,4.74,8,4.6A5.67,5.67,0,0,0,6.82,4a1.91,1.91,0,0,1-1-.8,1.14,1.14,0,0,0,.52.92A14.31,14.31,0,0,0,8.19,5.56L9,6a10,10,0,0,0-3.05,5.45,2.69,2.69,0,0,1-1.68-.67.2.2,0,0,1-.1.25.53.53,0,0,1-.3,0A23.73,23.73,0,0,1,0,10.69a2,2,0,0,0,1.31.59,17,17,0,0,0,3.33.3l0,.41a2.36,2.36,0,0,1,1.15-.08h.05A10.14,10.14,0,0,0,6,15.51c-.44.14-.83.41-1.28.54a6,6,0,0,1-1,.13,14.77,14.77,0,0,0-2.47.39l-.08,0c-.13.08-.07.29.06.35a.64.64,0,0,0,.43,0,24.62,24.62,0,0,1,4.51-.87,12.52,12.52,0,0,0,.44,1.35l.09.19a2.07,2.07,0,0,0-.24.17c-.34.24-.61.58-1,.82a3.71,3.71,0,0,0-.41.28,3.55,3.55,0,0,0-.23.31l-.48.77a.73.73,0,0,0,.56,0,2.17,2.17,0,0,0,.47-.32A20.32,20.32,0,0,0,7,18.09a8.12,8.12,0,0,1,.87,1.47c0,.12.09.27.21.33s.34,0,.51,0c.45,0,.65.57.72,1a1,1,0,0,1,0,.25.82.82,0,0,1-.25.38,13.77,13.77,0,0,0-2.54,4.8c.75-.16,1.18-.92,1.49-1.61a3.13,3.13,0,0,1,1.34-1.78,6.25,6.25,0,0,1-.62,1.34l-1.14,2a.35.35,0,0,0,.46.09A1,1,0,0,0,8.37,26c.45-.62.89-1.25,1.33-1.88a8.87,8.87,0,0,0-.34,2.07C9.24,27,9.09,27.73,9,28.5c.6-.62.82-2.18,1.13-3a12.39,12.39,0,0,0,1-3.73L11.61,23l.54,1.3a6.62,6.62,0,0,0,1,1.86,6,6,0,0,0,.14-1.52,12.49,12.49,0,0,0-.16-1.37L13,22.2c-.2-1.28-1-3.18,0-4.21A8.19,8.19,0,0,0,14,17a4.24,4.24,0,0,0,.6-1.75,1.26,1.26,0,0,1,.36-.77c.14-.11.33-.16.48-.27a1.33,1.33,0,0,0,.37-.95l1,.17a.62.62,0,0,0,.27,0l.17-.06c.2,0,.26.31.45.34a.37.37,0,0,0,.25-.12,12,12,0,0,0,1.66-1.9c.29.8,1.23,1.57,2,1.3a1.47,1.47,0,0,1,.69-.17,1,1,0,0,1,.44.3,2.29,2.29,0,0,0,1.31.75,6.28,6.28,0,0,1,1.61.77,1.37,1.37,0,0,0,.45.23,4.45,4.45,0,0,1,1.12.42c.18.09.34.23.52.31s.35.06.44.14a1.07,1.07,0,0,1,.15.22c.16.29.44.39.66.62s.55.64.86.93a.32.32,0,0,0,.28.11.85.85,0,0,0-.18-.5,5.75,5.75,0,0,0-1-1.22c-.19-.16-.41-.38-.33-.62a2.55,2.55,0,0,1-.72-.47,4.08,4.08,0,0,0-1.41-.67c.12,0,.2-.12.16-.23a.6.6,0,0,0-.25-.25l-.78-.54.81.47a3.1,3.1,0,0,0,.93.42c.36.07.77,0,1.06.25.11,0,.16-.47.29-.57a1,1,0,0,1,.44-.12,3.5,3.5,0,0,0,.52-.17,3.1,3.1,0,0,1,1,0,1.37,1.37,0,0,1,.69.22.24.24,0,0,0,.13.05c.09,0,.13-.13.1-.21a.37.37,0,0,0-.2-.17,5.52,5.52,0,0,0-.69-.34c0-.21-.2-.25-.39-.34a2.37,2.37,0,0,0-1.26-.24,1.27,1.27,0,0,0-.3-.83,3.28,3.28,0,0,0-.68-.55,18.21,18.21,0,0,0-1.6-1,10.61,10.61,0,0,0,2.92.94,3,3,0,0,0,1.32.07,1.65,1.65,0,0,1,.43-.09c.31,0,.63.24.9.1s.24-.55.1-.82A.77.77,0,0,0,32,9.58a1.94,1.94,0,0,0-.6-.39l-1.09-.54a3,3,0,0,0-1.75-.38H27.2l.34-.53a.35.35,0,0,1,.1-.11c.12-.08.28,0,.4.07a3.82,3.82,0,0,0,4.28-.48,1.62,1.62,0,0,0-1.23.21,1.94,1.94,0,0,1,1.35-.88,2.14,2.14,0,0,0,1.38-.84c.13-.25,1.63.8,1.75.88.27.2.54.4.81.62a1.33,1.33,0,0,0,.34.22.4.4,0,0,0,.38-.05c.18,0,0,.17.17.28l.59.44a8.49,8.49,0,0,1,1.52,1.35,1.78,1.78,0,0,0,.32.35.43.43,0,0,0,.45,0C41,11.4,41.2,13.1,42.27,14.5c.06-.06,0-.12,0-.2l-1-2.58a8.9,8.9,0,0,1-.76-2.13,5.36,5.36,0,0,0-1-2.14c.09-.16.15-.14.06-.31a1.39,1.39,0,0,0-.37-.43A8,8,0,0,0,37.1,5.35s.06,0,0-.08a.16.16,0,0,0-.08-.08c-.69-.37-1.4-.72-2.11-1.05l.42,0A4.69,4.69,0,0,1,37.8,4.57Zm-24.45,11a.59.59,0,0,0-.16.4.28.28,0,0,1,0,.18l-.11.08a5.93,5.93,0,0,0-1.16.82s-.07,0-.1,0a.11.11,0,0,1-.06-.07c-.14-.31-.15-.67-.32-1a.61.61,0,0,1-.09-.18c-.12-.48.38-.41.69-.43l1.26-.06c.05,0,.12,0,.13.05S13.39,15.51,13.35,15.55Zm3.93-4.26-.2.76c0-.06-.11-.06-.16,0s-.08.11-.15.12-.16-.12-.25-.2a.57.57,0,0,0-.39-.08,1.62,1.62,0,0,1-.83-.23c-.28-.16.1-.83.36-.91a2,2,0,0,1,1.56.37l.06.05A.17.17,0,0,1,17.28,11.29Zm2.92-1.11a1.62,1.62,0,0,1-.34.47c-.1.11-.24.23-.38.18l-.16-.13a.8.8,0,0,0-.48-.11l-1.55-.07a10.7,10.7,0,0,1,1.86-.35.21.21,0,0,0-.07-.27h0l-.06,0c-.55,0-1.11.08-1.66.1a2.07,2.07,0,0,1-1.13,0h1.13c.14,0,.28-.07.43-.09a6.38,6.38,0,0,1,1,0,.52.52,0,0,1,.25,0l.26,0a.54.54,0,0,0,.3-.1.5.5,0,0,0-.44-.16l-1.68,0c-.12,0,.3-.26.3-.26a2.42,2.42,0,0,1,.36-.18,2,2,0,0,1,1.23,0,.27.27,0,0,1,.17.06.64.64,0,0,1,.13.15c.14.15.38.2.5.36A.55.55,0,0,1,20.2,10.18Zm1.71,1.61,0,.09a.21.21,0,0,1-.1.06,1.4,1.4,0,0,1-.41.06l-.08,0a.2.2,0,0,1-.08-.12,2.34,2.34,0,0,1,0-1c0-.12,0-.18.12-.23a4.32,4.32,0,0,1,.51,0A4.67,4.67,0,0,1,21.91,11.79Zm0-3.63a.58.58,0,0,1-.1.32.53.53,0,0,1-.36.13c-.22,0-.43,0-.64,0a2.43,2.43,0,0,0,.2-1l0,0,0-.08v.06a1.78,1.78,0,0,1,1-.29Zm3.34-1.68a.26.26,0,0,1,.17-.12c.1,0,.17.11.18.21,0,.33-.29.57-.59.69l-.5.17a9.68,9.68,0,0,1,.74-.95ZM23.79,8.67a.11.11,0,0,0-.06.1c.55,0,1.08-.59,1.66-.5,0,.19.08.44-.07.57a.4.4,0,0,1-.2.07L24.21,9a.58.58,0,0,1-.37,0,.21.21,0,0,1-.1-.22l-.24,0Zm1.88,3.74a2.67,2.67,0,0,1-.88-.15,4.43,4.43,0,0,0-.73-.23,3,3,0,0,1-.74-.1c.09-.23,0-.58.13-.78s.27,0,.35.2A1.22,1.22,0,0,0,25,12a.75.75,0,0,0,.31-.1,1,1,0,0,0,.19-.17,1.14,1.14,0,0,1,.18.72ZM36.73,5.84a1.19,1.19,0,0,1,.63.3,5.92,5.92,0,0,1,.88.77,1.56,1.56,0,0,0,.73.62l.14,0a.39.39,0,0,1,.14.17l.33.62c-.44-.18-.73-.62-1.14-.86a3.9,3.9,0,0,1-.66-.38l-.21-.21c-.18-.18-.41-.3-.6-.47S36.66,6.09,36.73,5.84Z"/></g></g></g></g></svg>