<svg xmlns="http://www.w3.org/2000/svg" viewBox="0 0 531.48 858.8"><title>vice</title><g id="Layer_2" data-name="Layer 2"><g id="Layer_1-2" data-name="Layer 1"><path d="M531.48,769.06c0-6.14-2.56-9-8.8-9.76q-16.84-1.93-33.73-3.67-45.88-4.78-91.8-9.5-46.39-4.8-92.78-9.63c-24.48-2.54-48.93-5.33-73.44-7.51-7-.63-14.18-3.47-21.83.56-.28-4.77-.75-9.21-.76-13.65q-.12-52.41-.1-104.83c0-7-1-8.46-7.86-9.75-4.7-.88-6.56-3-6.49-8.11q.66-50.43.76-100.87.32-100.65.41-201.28a37.42,37.42,0,0,0-.49-4.34l-1.4.13c-.08,1.58-.23,3.16-.24,4.74q-.42,81.9-.79,163.8c-.15,45.78-.13,91.56-.2,137.35,0,2,.27,4.12-.34,5.94-.47,1.41-2.11,2.42-3.24,3.61-.85-1.22-2.29-2.38-2.44-3.68a83.21,83.21,0,0,1-.12-9.48v-55h-1.19V604l-.81,0v-313h1.38V374.2c.93-20.63.34-41.29,1.2-61.88.37-9.09-3.41-19.19,4.08-27.36.21-.24-.15-1-.16-1.45-.06-12.15-.62-24.33,0-36.44.39-7.27,2.57-14.46,4.22-21.62.37-1.59,1.88-2.92,2.82-4.3,5,21.14,3.81,42.22,2.83,65,2-2.58,4.26-4.21,4.22-5.79-.34-15.05,2.63-30.22-1.52-45.16-2-7.21.8-13.74,6.94-18.11,1.33-.95,2.1-2.78,3-4.29,2.06-3.59,4-7.24,6-10.86l1.51.84a24.2,24.2,0,0,0-.58,3.26,27.08,27.08,0,0,0,.19,3.41c10.56-3.84,15.87-17.79,12.06-32.06-1.07-4-1.95-8.84-7.63-9.88.64-5.16-10.25-12-16.41-9.54-7.73,3-7.73,3-14.06-4.3,4.71-1,3.7-3.66,2.1-6.6-1.19-2.19-1.92-4.65-3.26-6.73-2.63-4.09-.86-7,2.08-10.23l2.66,4.55,1.47-.24c-.18-1.81-.36-3.61-.5-5L209,126.76c-2.33-1.62-4.78-2.8-4.65-3.32a63.54,63.54,0,0,1,3.23-8.32c.84-2,.42-5.51,1.79-6.5,8-5.74,16.44-10.9,24.74-16.24,3.78-2.43,7.78-4.57,11.32-7.31,3.69-2.84,7.16-5.28,12.24-4.59,1.91.26,4.13-.79,6-1.64a95.84,95.84,0,0,0,8.79-4.65c14.72-8.63,30.63-15.93,38.41-32.64,1.5-3.22,1.95-6.9,3.12-10.28.81-2.34,1.58-4.93,3.16-6.72,4.07-4.6,8.66-8.74,12.87-13.23,2.65-2.82,1.62-5.83-.23-8.68s-4-3.27-7.2-1.85c-8.17,3.63-16.5,6.88-24.78,10.24a6.63,6.63,0,0,1-2.06.13l-.66-1.07,4.64-2.5c-2.76-2.17-5-3.68-7-3.4-8.69,1.23-18.5.88-25.67,5-14.53,8.34-30.7,15.36-39.54,31.21a5.21,5.21,0,0,1-1.82,1.66c-8.85,5.62-17.66,11.31-26.65,16.68-1.15.69-3.45.1-4.92-.55-3.76-1.67-7.16-4.39-11-5.47-9.24-2.56-19.18,2.88-20.85,10.71-.64,3-1.49,6-2.42,9.64-10.53-3.6-13.7,3-16.25,10.79l-.87-4.78c-10.59,6.46-20.64,12.57-30.66,18.74a18.88,18.88,0,0,0-4.76,3.58,16.83,16.83,0,0,0-3.64,6.29c-.81,3.25,1.16,5.25,4.22,3.41,6.54-3.94,12.75-8.42,19.07-12.73,5.18-3.53,10.32-7.12,15.23-10.51,3.1,7.12,5.5,13.83,8.87,20a132.68,132.68,0,0,0,11.15,16.37c3.82,5,8.24,9.54,12.17,14.46,2.47,3.08,3.28,7.88,8.77,7.57.57,0,1.44,1.32,1.8,2.19,1.67,4,3.81,7.88,4.66,12a58.53,58.53,0,0,0,13.2,27c2,2.3,2.86,6.37,2.55,9.46-.2,1.94-3.55,3.56-5.79,5.61l4.57,2.37c-2.35,12-13.13,14.15-21.53,18.37-7.92,4-16.35,2.74-24.58-4,3.41,7.41,3.22,13.5.35,19.56a8.48,8.48,0,0,0-.66,3.4c-.21,12.32-.53,24.64-.32,36.95,0,1.81,2.47,4.95,4,5.13,5,.56,5.59,3.2,5.57,7.43q-.22,72.18-.2,144.34c0,51.95-.12,103.89.06,155.83,0,5.19-1.39,7.75-6.56,9.11-3.73,1-7,3.59-11.12,5.8-14.36-8.52-25.44-5.63-33.16,9.39-7,13.64-7.72,28-4.56,42.58a32,32,0,0,0,5.07,11.27c5.76,8.24,21.69,9.4,27.85,2.2.92-1.07,1-3.38.66-4.94-1.21-5.61-2.77-11.14-4.19-16.7l1.75-.88c2.91,1.52,8.19-1.33,8.21,5.53,0,22.14.31,44.27.37,66.41,0,6.77-.69,7.19-7.35,6.37a7.81,7.81,0,0,0-2.91.32c-4.65,1.28-9.3,2.57-13.92,4-18.81,5.6-37.59,11.32-56.42,16.84-20.76,6.09-41.58,12-62.33,18C2,769,.1,771.93.05,778.46c0,5-.09,10,0,15,.18,12.32-1.83,12.45,11.63,13.39L81.24,831.6c8.11,1.7,16.26,3.24,24.43,4.67,15,2.62,30.09,5.31,45.2,7.58,10,1.5,246.13,16.14,249.35,14.87,17.23-6.8,131.3-64.34,131.19-69.19C531.25,782.71,531.48,775.88,531.48,769.06ZM217.73,178.63c0,1.26-.93,3.42-1.77,3.6-5.93,1.28-4.78,5.88-5,9.85a40.43,40.43,0,0,0,.28,4.39l-1.24.11c-.94-8.36-1.89-16.73-2.85-25.25C214.4,169.15,217.82,171.25,217.73,178.63ZM236.19,64.94l1,1.5c-2.36,5-36.39,26.5-41.87,24.68ZM188.28,87.05C200.49,74,216,65.91,232.05,58.58A235.66,235.66,0,0,1,188.28,87.05Zm-3.16,153,1.7-.13v43.23h-1.7ZM176,598c-.42,1.2-1.53,2.16-2.34,3.22a17.13,17.13,0,0,1-2.71-3.37c-.45-1-.17-2.29-.16-3.46q.31-94.87.66-189.76c.09-20.63.46-41.26.71-61.89,0-1.26.13-2.52.2-3.79h1.22V482.25h1.37V425.14h1q0,20.28,0,40.55.08,64.17.17,128.33A12.45,12.45,0,0,1,176,598Zm1.57-318.55c-.09,1.87-1.87,3.65-2.86,5.48l-1.89-1c0-4.43,0-8.86,0-13.29.05-8.49.05-17,.25-25.46a9.86,9.86,0,0,1,1.47-4.52c.3-.52,2-.69,2.69-.36a2.94,2.94,0,0,1,1.37,2.29C178.33,254.87,178.1,267.16,177.53,279.43Zm284,485.82c-26.56,9.22-53,18.63-79.75,27.37-4.92,1.61-10.78.83-16.15.44-8-.57-16-1.78-24-2.73l-.28-1.51a106.45,106.45,0,0,1,10.2-4.55c23-7.66,46.35-14.45,69-23,12.87-4.87,25.11-2.89,37.75-1.44,3,.35,6,.9,9,1.35l.24,1.53C465.61,763.54,463.64,764.53,461.58,765.25Z"/></g></g></svg>