<svg xmlns="http://www.w3.org/2000/svg" viewBox="0 0 174.17 103.81"><title>C241-dohiku-Claw</title><g id="Layer_2" data-name="Layer 2"><g id="Layer_1-2" data-name="Layer 1"><path d="M160.18,16.29a14.05,14.05,0,0,0-4.18.64L136.9,1.29,61.43,0A67,67,0,0,0,34.52,6C21.66,11.83,5.38,24.65.81,52.54c-4,24.36,7.52,36.81,17.88,43,10,5.91,22.5,8.42,34.46,8.29,20.42-.22,40.08-15.39,40.08-15.39-9.84,3.09-50.42,12.12-70.45.22-12-7.1-16.69-18.81-14.07-34.8C16.32,7.39,59.42,8,61.26,8l74.27,1.29,13.88,12.06a14,14,0,1,0,10.77-5.06Zm0,20.65a6.66,6.66,0,1,1,6.66-6.65A6.66,6.66,0,0,1,160.18,36.94Z"/></g></g></svg>