<svg xmlns="http://www.w3.org/2000/svg" viewBox="0 0 88.69 49.47"><title>Fasna-F500</title><g id="Layer_2" data-name="Layer 2"><g id="Layer_1-2" data-name="Layer 1"><path d="M20.5,49.47c-8,0-12.34-2.44-13.95-3.61-4.84-3.5-7-9.29-6.47-17.19C1.83,3.43,29.31.05,29.58,0h.25c.33,0,33.43.36,38.28.19a16.93,16.93,0,0,1,10.1,3.16L88.15,11a1.36,1.36,0,0,1,.26,1.91L87.54,14a1.2,1.2,0,0,1-1.69.22L75.79,6.53a13.24,13.24,0,0,0-7.53-2.35C63.42,4.36,32.58,4,29.92,4a38.4,38.4,0,0,0-12.5,4.27C9.2,12.85,4.71,19.81,4.07,29c-.44,6.43,1.86,10.29,4.82,13.67,4.78,5.46,15.17,3.12,18.35,2.84l16.64-2.57C33.46,47.12,26.46,49.47,20.5,49.47Z"/></g></g></svg>