<svg xmlns="http://www.w3.org/2000/svg" viewBox="0 0 183.51 92.92"><title>FM5025</title><g id="Layer_2" data-name="Layer 2"><g id="Layer_1-2" data-name="Layer 1"><g id="OFI3aG.tif"><path d="M88.91,78.51A79.76,79.76,0,0,1,66,89.14C54.12,92.49,42,94.05,29.74,92,8.33,88.43-4.08,69.4,1.22,48.37,4.57,35.1,12.8,25.25,23.51,17.2,39.4,5.26,57.57.1,77.17,0c18-.08,36.07.47,54.1.79,8.14.15,16.28.42,24.42.69,1.82.06,3.63.4,5.44.59,2.86.29,5.71.63,8.57.83a21,21,0,0,1,12,5.07c1.45,1.19,2.28,2.72,1.62,4.61a3.62,3.62,0,0,1-4,2.69c-3.86-.78-8-1.36-11.33-3.24a26.12,26.12,0,0,0-12.44-3.79c-15.62-.41-31.25-.87-46.87-1.13q-16-.25-31.92,0c-17.63.27-33.9,5.06-48.34,15.38C19.65,28.67,12.78,36.33,9.1,46.62c-7,19.51,3.92,36.8,24.73,38.3,7.07.51,14.25-.4,21.37-.63a110.15,110.15,0,0,0,26-4.48A71.36,71.36,0,0,1,88.91,78.51Z"/></g></g></g></svg>