<svg xmlns="http://www.w3.org/2000/svg" viewBox="0 0 284.02 178.81"><title>FM5065</title><g id="Layer_2" data-name="Layer 2"><g id="Layer_1-2" data-name="Layer 1"><path d="M55.3,178.81c-5.11,0-8-.24-8.14-.25-1.77-.17-50.3-3.67-47-67C1.65,82.88,16.8,56.21,42.8,36.44,70,15.76,107.56,3.4,151.43.69c73.81-4.56,115.71,14.71,129.76,22.8a5.67,5.67,0,0,1,1.72,8.27l-.86,1.17a6.64,6.64,0,0,1-8.87,1.74c-12.79-7.94-50.32-26.43-118-22.25C114.08,15,76.26,28.58,51.27,47.58,28.6,64.81,15.42,87.79,14.14,112.28c-2.6,50,25.07,53.22,26.29,53.33.23,0,25.8,2,51.73-2.33,27.1-4.48,52.61-15.18,52.61-15.18C103.33,177.58,72.07,178.81,55.3,178.81Z"/></g></g></svg>