<svg xmlns="http://www.w3.org/2000/svg" viewBox="0 0 314.55 159.33"><title>FM5005</title><g id="Layer_2" data-name="Layer 2"><g id="Layer_1-2" data-name="Layer 1"><g id="hh6vLc.tif"><path d="M152.55,133.58l.36.5a5.89,5.89,0,0,1-1,1.08A147.61,147.61,0,0,1,108,154.37a156.91,156.91,0,0,1-44,4.85c-13-.5-25.57-2.79-36.57-10.12C13.47,139.82,4.13,127.3,1,110.5-1.39,97.41.61,84.92,5.48,72.73A86.49,86.49,0,0,1,19,49.88,124.24,124.24,0,0,1,43.36,27.57,128.73,128.73,0,0,1,70.51,12.44,195.75,195.75,0,0,1,97.86,4.08C116.63-.28,135.8-.18,154.93.13q33.31.52,66.63,1.3c13.05.28,26.11.59,39.16,1.08,6.87.26,13.8.33,20.45,2.51a4.88,4.88,0,0,0,2.2.25c8.46-1.34,16.07,1.16,23.22,5.29a28.68,28.68,0,0,1,6.31,5.17,5.8,5.8,0,0,1,.88,7,7,7,0,0,1-6.44,4,35.58,35.58,0,0,1-20.74-6.15,32,32,0,0,0-17-5.79q-26.44-.86-52.9-1.54c-14.31-.36-28.63-.71-42.94-.84-14.64-.13-29.29-.25-43.93.13C113.77,12.91,98,15.38,82.78,21,61.52,28.8,42.51,40.13,28.05,58c-10.44,12.87-16.38,27.61-15.83,44.4.53,16,8.62,27.74,21.8,36.23,7.39,4.75,15.68,6.58,24.33,7.31,10.17.87,41.51-1.39,47-2.25,9.25-1.45,18.43-3.36,27.62-5.21C136.66,137.71,150.9,134.45,152.55,133.58Z"/></g></g></g></svg>