<svg xmlns="http://www.w3.org/2000/svg" viewBox="0 0 235.43 109.2"><title>H200BL</title><g id="Layer_2" data-name="Layer 2"><g id="Layer_1-2" data-name="Layer 1"><path d="M103.27,98.49c-4.4,1.33-8.77,2.79-13.21,4-15.33,4.08-31,5.89-46.81,6.67C14.15,110.57-4,84.44.76,58.55,4.15,40.18,15,26.68,30.18,16.4,46.31,5.52,64.4,1.23,83.53.86c22.28-.44,44.56-.6,66.84-.78q20.19-.16,40.4,0c4.48,0,9,.48,13.43.82a27,27,0,0,1,14.69,5.68c4.72,3.68,9.28,7.55,13.83,11.44,1.1.94,2.49,2.21,2.64,3.47.22,1.77-.05,4.14-1.12,5.37-.85,1-3.34,1.14-4.87.75s-3.17-1.77-4.57-2.92c-2.82-2.33-5.63-4.68-8.24-7.23a26.2,26.2,0,0,0-17.44-7.61c-9-.44-18-.59-26.92-.58-29.1,0-58.2,0-87.3.36-14.75.19-29.19,2.75-42.39,9.76C26.31,28,14.1,40.29,9.46,58.59c-5.41,21.3,10.08,41.89,32.05,41.87,14.92,0,29.85-1.63,44.77-2.56,5.57-.35,11.13-.8,16.69-1.2Z"/></g></g></svg>