<svg xmlns="http://www.w3.org/2000/svg" viewBox="0 0 200.3 109.42"><title>H310</title><g id="Layer_2" data-name="Layer 2"><g id="Layer_1-2" data-name="Layer 1"><path d="M90.11,101.82C71.84,105.39,54,111.07,35.35,109,11.13,106.21-1.74,90.32.19,65.9,1.49,49.39,10.72,37.15,22,26.37A92,92,0,0,1,52.92,6.67c21.71-8.2,43.69-8.59,66-2.53,20.68,5.6,40.29,13.71,58.18,25.36,8.1,5.27,15,12.44,22,19.2,1.31,1.26,1.45,5.06.58,7-1.48,3.24-4.21,1.43-6.26,0-2.56-1.82-5.49-3.44-7.4-5.83C175.74,36.91,161.46,30,146.88,23.42,130.93,16.25,114.64,9.85,97,8.84,68.71,7.2,44,15.47,24.29,36.7a65.74,65.74,0,0,0-14.94,26C4.71,77.94,13.2,94.91,28.7,98.92a84.52,84.52,0,0,0,18.65,2.28c13.13.37,26.27.19,39.41.27A31.71,31.71,0,0,1,90.11,101.82Z"/></g></g></svg>