<svg xmlns="http://www.w3.org/2000/svg" viewBox="0 0 186.64 99.04"><title>H333</title><g id="Layer_2" data-name="Layer 2"><g id="Layer_1-2" data-name="Layer 1"><path d="M83.5,93.85c-8.78,1.87-16.24,4.38-23.81,4.83a167.59,167.59,0,0,1-31.28-.82C13,95.87,1.47,82.35.21,66.76-1.55,45,7.76,28.83,25.41,17,39.71,7.38,55.93,3.37,72.77,1.27,97.89-1.87,122.56,1.11,146.94,7c9.29,2.26,18.68,4.88,27.31,8.88,4.75,2.21,8.21,7.48,11.81,11.74.89,1,.69,4.68-.1,5.11-1.52.81-4.39,1-5.67,0-3.15-2.35-5.47-5.83-8.6-8.23-3.58-2.76-7.39-5.85-11.6-7.06C134.25,10,108,5.05,80.89,7.3c-20.28,1.68-40,5.58-56.28,19C13.36,35.47,7.05,47.34,7.21,62.19c.19,17.25,11,29,28.21,29.75,15.25.65,30.53.35,45.8.49C81.46,92.43,81.7,92.72,83.5,93.85Z"/></g></g></svg>