<svg xmlns="http://www.w3.org/2000/svg" viewBox="0 0 221.79 102.42"><title>H400</title><g id="Layer_2" data-name="Layer 2"><g id="Layer_1-2" data-name="Layer 1"><path d="M99.77,93.21c-7.65,1.32-15.29,2.74-23,3.94-11.33,1.77-22.65,3.7-34,5a43.11,43.11,0,0,1-26.92-5.56C5.66,90.65.22,81.75,0,70-.42,45.71,10.22,27.43,31.2,15.4,49,5.17,68.58.59,89,.37,119.29.05,149.56.26,179.83,0,188-.07,194,3.16,199.41,9.06a61.48,61.48,0,0,0,13.1,10.33c5.77,3.55,9.07,8.27,9.27,14.93.16,5.4-1.24,10.3-6.67,12.91-4.73,2.27-10.77.93-15.16-3.25-5.34-5.08-6.07-15.8-1.45-21.36-5.55-9.7-13.17-14.4-25.09-14-27.58.92-55.2.79-82.81.68-21.77-.08-41.77,5.34-59.85,17.5-15.9,10.7-22,26.15-20.82,44.72C10.78,84.45,21.64,93,37.17,92.93c17.46-.1,34.91-.79,52.37-1.2,3.38-.08,6.76,0,10.14,0ZM206.21,25.56,204,26.84c.51,3.24.42,6.78,1.79,9.62.67,1.39,4,1.49,6.17,2.17.49-2.18,2.08-5,1.24-6.39C211.6,29.58,208.63,27.74,206.21,25.56Z"/></g></g></svg>