<svg xmlns="http://www.w3.org/2000/svg" viewBox="0 0 165.47 77.62"><title>HDG-Jig</title><g id="Layer_2" data-name="Layer 2"><g id="Layer_1-2" data-name="Layer 1"><path d="M155.06,20.23a10.72,10.72,0,0,0-1.62.14h0L140.29,2.25,52.18,0h-.26l-.26,0a81.67,81.67,0,0,0-23,7.78C12.93,16,3.26,28.16.73,43.12c-2.14,12.58.44,22,7.65,27.89,5.34,4.38,13.06,7,22.74,6.56C51.63,76.64,66,70.1,72.77,66.26a.62.62,0,0,0-.49-1.14c-18.07,5.4-51,8.7-60.09,1.25-5.43-4.46-7.3-11.94-5.55-22.25C11.79,13.76,49,6.59,52.31,6l84.86,2.16L148,23a10.4,10.4,0,1,0,7.1-2.81Zm.07,14.85a4,4,0,1,1,4-4A4,4,0,0,1,155.13,35.08Z"/></g></g></svg>