<svg xmlns="http://www.w3.org/2000/svg" viewBox="0 0 181.88 102.04"><title>HDG644</title><g id="Layer_2" data-name="Layer 2"><g id="Layer_1-2" data-name="Layer 1"><path d="M66.35,102c-17.3,0-38.21-3.76-51.81-13.35-11.35-8-16.2-19.12-14-32.13C3.62,37.86,13.12,22.8,28,13,40.87,4.49,57.43,0,75.88,0c34.35,0,85.59,23.38,88.38,25.1s11.64,9.44,16.34,13.6a3.78,3.78,0,0,1,.31,5.35h0a2.2,2.2,0,0,1-3.11.18c-6.06-5.39-14.51-12.68-16.69-14C158.43,28.55,109,6,75.88,6,37.77,6,11.8,25.27,6.42,57.54,4.63,68.27,8.53,77.1,18,83.78c20.71,14.61,64.05,16.9,75.14,10.74h0C88.1,97.32,78.05,102,66.35,102Z"/></g></g></svg>