<svg xmlns="http://www.w3.org/2000/svg" viewBox="0 0 400.6 172.28"><title>HDN302-SPR</title><g id="Layer_2" data-name="Layer 2"><g id="Layer_1-2" data-name="Layer 1"><path d="M93.67,172.28c-24.4,0-46.32-3.44-62.12-11.8-26.79-14.2-37-39.61-28.77-71.56C15.73,38.73,46.67,17.23,70.35,8A117.81,117.81,0,0,1,118.67.18H311.38a33.23,33.23,0,0,1,22.13,8.45L397.6,65.88a9,9,0,0,1,.72,12.71h0a9,9,0,0,1-12.71.71L327.9,27.75a37.67,37.67,0,0,0-25.08-9.57H117.87l-.43,0a100.35,100.35,0,0,0-41.23,6.93C47.84,36.34,29,59.33,20.21,93.41,14,117.5,20.46,134.23,40,144.57c40.43,21.41,137.23.17,141.5-3.18,0,0-25,20.23-65.91,28.74A107.72,107.72,0,0,1,93.67,172.28Z"/></g></g></svg>