<svg xmlns="http://www.w3.org/2000/svg" viewBox="0 0 217.62 104.27"><title>jig</title><g id="Layer_2" data-name="Layer 2"><g id="Layer_1-2" data-name="Layer 1"><path d="M205.72,17.28c-1.52-1.48-3-3-4.52-4.49-2-2-3.9-4-5.85-6l-.45-.5c-.2-.19-.39-.39-.58-.56a12.88,12.88,0,0,0-1.18-1,16.18,16.18,0,0,0-2.49-1.53,18.54,18.54,0,0,0-5.33-1.68,20.52,20.52,0,0,0-2.68-.24l-.67,0h-1.56l-4.2,0-16.89-.2L125.53.58,91.72.1,83.26,0,78.94,0c-1.52,0-3,.09-4.5.19a116.37,116.37,0,0,0-34.3,7.93,86.83,86.83,0,0,0-15.88,8.25A61,61,0,0,0,10.61,28.63a46.64,46.64,0,0,0-8.75,16.6A47.41,47.41,0,0,0,.18,54.49c-.07.78-.11,1.56-.13,2.34s0,1.52,0,2.25c0,1.47,0,2.93,0,4.41A73.74,73.74,0,0,0,2.52,81.35a41.78,41.78,0,0,0,3.55,8.81A28.7,28.7,0,0,0,12.29,98a24.72,24.72,0,0,0,9,5,31,31,0,0,0,9.7,1.25h.4l.25,0c4.49-.74,9-1.52,13.44-2.37s8.94-1.77,13.39-2.77S67.32,97,71.74,95.83s8.84-2.44,13.21-4c-4.62-.18-9.21-.09-13.79,0s-9.13.43-13.68.76-9.09.75-13.61,1.23-8.76,1-13.13,1.58a22.24,22.24,0,0,1-6.76-1,15.57,15.57,0,0,1-5.59-3.3c-3.24-3-5.39-7.44-6.64-12.34A67.73,67.73,0,0,1,9.87,63.25c0-1.34,0-2.69,0-4,0-.67,0-1.35.06-2s.07-1.25.13-1.88a36.64,36.64,0,0,1,1.42-7.31,37.73,37.73,0,0,1,7-13A51.09,51.09,0,0,1,29.9,24.81c8.7-5.8,18.9-9.73,29.37-12.25A105.65,105.65,0,0,1,75.16,10c1.32-.11,2.64-.18,3.94-.21l4.13,0h8.43l33.77.16,33.78.3,16.9.19,4.25,0H182l.4,0a12.63,12.63,0,0,1,1.52.13,9.41,9.41,0,0,1,2.69.84,6.7,6.7,0,0,1,1.11.68,4.61,4.61,0,0,1,.46.36l.17.17s.14.17,0,0l.36.43c2,2.06,3.91,4.11,5.84,6.19.49.52,1,1.05,1.46,1.58a16.1,16.1,0,0,0-4.67,11.56c0,8.37,5.9,15.17,13.16,15.17s13.17-6.8,13.17-15.17C217.62,24.5,212.39,18,205.72,17.28Zm-1.27,22.93c-3.16,0-5.83-3.59-5.83-7.84s2.67-7.83,5.83-7.83,5.84,3.59,5.84,7.83S207.62,40.21,204.45,40.21Z"/></g></g></svg>