<svg xmlns="http://www.w3.org/2000/svg" viewBox="0 0 182.26 106.01"><title>jigSupreme</title><g id="Layer_2" data-name="Layer 2"><g id="Layer_1-2" data-name="Layer 1"><path d="M83,93c-4.65,2.3-9.2,4.84-14,6.86A81.13,81.13,0,0,1,34.94,106C16.8,105.46,4.36,94.61,1.05,76.68-4.38,47.24,11.54,19.6,40.79,7.27,54.78,1.36,69.47.4,84.34.32,105,.2,125.6.2,146.23,0c7.1-.07,12.59,2.48,16.35,8.58,3.36,5.47,7.54,9.94,13.46,12.91,5.44,2.74,6.83,7.88,6,13.62-.79,5.39-4.1,8.5-9.3,9.83-9,2.3-16.54-4.55-15-13.68a39.22,39.22,0,0,1,1.39-4.77c1-3.22,4.32-5.92.81-9.89C156,12.14,153.19,7,145.79,7.2c-25.94.65-51.92.12-77.82,1.41-20.86,1-38.57,9.94-51.12,27.23-9,12.38-11.66,26.33-8.11,41.24C12,90.71,21,99,35.06,98.29c14.85-.73,29.57-3.86,44.35-6,1-.15,2.07-.39,3.1-.59C82.69,92.18,82.86,92.6,83,93Zm92.65-58.83c-.68-5.3-2.82-8-6.42-8.18-4-.2-4.4,3.42-4.45,6.39-.06,3.37,1.61,6.15,5.32,5.4C172.36,37.36,174.23,35.19,175.69,34.19Z"/></g></g></svg>