<svg xmlns="http://www.w3.org/2000/svg" viewBox="0 0 369.1 257.09"><title>softie</title><g id="Layer_2" data-name="Layer 2"><g id="Layer_4" data-name="Layer 4"><path d="M368.14,97.62a17,17,0,0,0-33,5.58,36.56,36.56,0,0,0-16.46.44s-9.14,3.72-9.34,3.83L239.22,30.11l66.72,79.63c-.48.36-1,.72-1.42,1.1l-62.9-71.91,57.63,77.22a38.94,38.94,0,0,0-2.32,3.24L204.71,12.23c18.14,5.22,39.16,14.52,39.33,14.59,0,0-25.27-18.47-45.62-22.67-19.4-4-40.63-5.37-48.55-2.93-.73.22-1.47.47-2.19.72C122,11,105.54,30.42,104.79,62.05c-.73,31,17.4,62.59,42.27,71.56,3.48,1.25,6.72,2.39,9.75,3.43L1,118.2l162.84,22.68L0,126.16l163.59,18.61-163-9.05,164.13,12.44,39.64,4.55-67.36,15.52,89.12-13.92,5.2.89-87.75,28.65,93-27.89,34.23,5.9L149,185.82l120.46-20.56L145.65,225.81l128.26-60.29L153,227.21l124.45-61.86L157.16,234.82,273,173.11,197.2,234.18l72.16-55.82-43,43.77L273.53,182l-47.61,75.12,66.87-82.25-45.2,64L304,169.47l3.15.11a36.77,36.77,0,0,0,51.41-50.64A17,17,0,0,0,368.14,97.62ZM290.69,119.7l-1.49.07L200.67,26.21,285,120l-10.1.51L173.59,58.57l97,62.13-17.14.85-108-40L244.86,122l-18.05.89-83.4-23.22,72,23.79-46.3,2.3-5.82,4.52A130.36,130.36,0,0,1,149,122.89C135.74,115,116,89,116.56,63.07c.78-33.35,20-45.58,36.74-50.75,5.43-1.67,24-6.17,42.33-2.37,2.79.58,5.79,1.34,8.88,2.23Zm67.2-18.07a6.56,6.56,0,0,1-4,8.36,6.48,6.48,0,0,1-3.42.24,37.11,37.11,0,0,0-4.23-2.83,7,7,0,0,1-.71-1.42,6.56,6.56,0,0,1,12.38-4.35Z"/></g></g></svg>